<svg aria-hidden="true" style="position: absolute; width: 0; height: 0; overflow: hidden;" version="1.1" xmlns="http://www.w3.org/2000/svg" xmlns:xlink="http://www.w3.org/1999/xlink">
<defs>
<symbol id="icon-logo" viewBox="0 0 75 32">
<path d="M4.077 7.397l-1.24-0.75c-0.777-0.473-1.331-0.938-1.663-1.394-0.327-0.462-0.49-0.992-0.49-1.59 0-0.897 0.31-1.625 0.929-2.185 0.627-0.56 1.436-0.84 2.431-0.84 0.951 0 1.823 0.266 2.616 0.799v1.85c-0.821-0.787-1.704-1.182-2.649-1.182-0.533 0-0.97 0.125-1.313 0.376-0.342 0.244-0.513 0.559-0.513 0.945 0 0.342 0.125 0.663 0.375 0.962s0.655 0.611 1.215 0.937l1.247 0.734c1.391 0.826 2.087 1.88 2.087 3.163 0 0.913-0.307 1.655-0.921 2.225-0.609 0.57-1.402 0.856-2.381 0.856-1.126 0-2.15-0.345-3.073-1.035v-2.070c0.88 1.114 1.899 1.671 3.057 1.671 0.511 0 0.935-0.141 1.272-0.424 0.343-0.287 0.514-0.647 0.514-1.075 0-0.696-0.501-1.354-1.501-1.973zM16.932 0.785h1.631v11.389h-1.631v-4.957h-6.4v4.957h-1.63v-11.389h1.631v4.924h6.399v-4.924zM26.674 0.623c1.761 0 3.225 0.557 4.394 1.671 1.174 1.114 1.761 2.511 1.761 4.19s-0.592 3.071-1.777 4.174c-1.18 1.098-2.669 1.647-4.467 1.647-1.718 0-3.15-0.549-4.296-1.647-1.141-1.103-1.711-2.483-1.711-4.141 0-1.701 0.575-3.109 1.727-4.223 1.153-1.114 2.609-1.671 4.37-1.671zM26.739 2.171c-1.304 0-2.377 0.408-3.219 1.223-0.837 0.815-1.256 1.856-1.256 3.122 0 1.229 0.421 2.25 1.263 3.065s1.897 1.223 3.163 1.223c1.272 0 2.332-0.415 3.179-1.247 0.854-0.831 1.28-1.866 1.28-3.106 0-1.206-0.426-2.22-1.28-3.040-0.847-0.826-1.891-1.24-3.13-1.24zM34.737 12.174v-11.405h3.611c1.087 0 1.954 0.294 2.6 0.881s0.97 1.375 0.97 2.365c0 0.663-0.166 1.249-0.497 1.76-0.326 0.502-0.792 0.889-1.342 1.11l-0.019 0.007c-0.576 0.228-1.402 0.342-2.479 0.342h-1.206v4.941h-1.638zM38.062 2.22h-1.686v3.563h1.785c0.664 0 1.174-0.155 1.533-0.465 0.358-0.316 0.538-0.764 0.538-1.345 0-1.169-0.723-1.753-2.168-1.753zM11.74 28.449c0 0.973-0.334 1.75-1.002 2.331-0.664 0.582-1.593 0.872-2.788 0.872h-6.531v-11.299h5.462c0.706 0 1.32 0.068 1.842 0.204 0.527 0.136 0.951 0.323 1.272 0.562 0.321 0.234 0.56 0.511 0.717 0.832s0.237 0.671 0.237 1.051c0 0.003 0 0.006 0 0.009 0 0.787-0.328 1.498-0.855 2.004l-0.001 0.001c-0.239 0.223-0.481 0.381-0.726 0.473 0.772 0.304 1.359 0.69 1.761 1.158 0.408 0.462 0.611 1.062 0.611 1.802zM7.761 23.606c0-0.544-0.179-0.905-0.538-1.085s-0.918-0.269-1.679-0.269h-0.719v2.706h0.734c0.777 0 1.337-0.089 1.679-0.269 0.348-0.179 0.522-0.541 0.522-1.084zM8.316 28.31c0-0.967-0.701-1.451-2.103-1.451h-1.386v2.894h1.386c1.402 0 2.103-0.48 2.103-1.443zM25.842 31.652h-3.489l-0.921-2.291h-4.908l-0.938 2.291h-3.489l4.997-11.299h3.766l4.981 11.299zM20.65 27.397l-1.656-4.125-1.671 4.125h3.327zM39.228 31.652h-4.158l-4.32-5.29v5.29h-3.409v-11.299h3.409v5.054l4.092-5.054h3.701l-4.207 5.29 4.892 6.008zM49.23 31.652h-8.518v-11.299h8.381v2.266h-4.973v2.070h4.744v2.275h-4.744v2.413h5.111v2.275zM62.461 31.652h-3.661l-0.888-2.006c-0.326-0.733-0.619-1.269-0.881-1.606-0.261-0.343-0.516-0.56-0.766-0.653-0.245-0.097-0.563-0.146-0.954-0.146h-0.383v4.41h-3.407v-11.299h5.795c0.935 0 1.702 0.19 2.299 0.57s1.027 0.842 1.288 1.386c0.266 0.544 0.399 1.060 0.399 1.549 0 0.57-0.111 1.055-0.334 1.451-0.218 0.391-0.449 0.676-0.694 0.856-0.236 0.174-0.505 0.345-0.786 0.496l-0.037 0.018c0.364 0.211 0.663 0.465 0.897 0.758 0.239 0.287 0.562 0.874 0.97 1.76l1.143 2.454zM57.831 23.923c0-0.522-0.171-0.886-0.514-1.092s-0.899-0.31-1.671-0.31h-0.717v2.723h0.734c0.831 0 1.399-0.090 1.704-0.269 0.31-0.184 0.465-0.536 0.465-1.051zM74.543 20.353l-4.426 6.122v5.177h-3.408v-5.112l-4.508-6.187h3.539l2.593 3.555 2.6-3.555h3.611z"></path>
</symbol>
<symbol id="icon-Arrow" viewBox="0 0 36 32">
<path d="M1.062 17.414c-0.781-0.781-0.781-2.047 0-2.828l12.728-12.728c0.781-0.781 2.047-0.781 2.828 0s0.781 2.047 0 2.828l-11.314 11.314 11.314 11.314c0.781 0.781 0.781 2.047 0 2.828s-2.047 0.781-2.828 0l-12.728-12.728zM36 18h-33.524v-4h33.524v4z"></path>
</symbol>
<symbol id="icon-facebook" viewBox="0 0 32 32">
<path d="M0 16c0-8.837 7.163-16 16-16s16 7.163 16 16c0 8.837-7.163 16-16 16s-16-7.163-16-16zM17.668 25.408v-8.705h2.403l0.319-3h-2.721l0.004-1.501c0-0.782 0.074-1.202 1.198-1.202h1.502v-3h-2.403c-2.887 0-3.903 1.455-3.903 3.902v1.801h-1.799v3h1.799v8.705h3.602z"></path>
</symbol>
<symbol id="icon-instagram" viewBox="0 0 32 32">
<path d="M0 16c0-8.837 7.163-16 16-16s16 7.163 16 16c0 8.837-7.163 16-16 16s-16-7.163-16-16zM16.001 7.467c-2.317 0-2.608 0.010-3.519 0.052-0.909 0.042-1.528 0.185-2.071 0.396-0.561 0.218-1.037 0.51-1.512 0.984s-0.766 0.95-0.985 1.511c-0.212 0.543-0.356 1.163-0.396 2.071-0.041 0.91-0.051 1.201-0.051 3.519s0.010 2.607 0.052 3.518c0.042 0.909 0.186 1.529 0.396 2.071 0.218 0.561 0.51 1.037 0.984 1.512s0.95 0.767 1.511 0.985c0.543 0.211 1.163 0.355 2.072 0.396 0.91 0.041 1.201 0.052 3.518 0.052s2.608-0.010 3.518-0.052c0.908-0.042 1.529-0.185 2.072-0.396 0.561-0.218 1.036-0.51 1.511-0.985s0.766-0.95 0.985-1.512c0.21-0.543 0.354-1.163 0.396-2.071 0.041-0.91 0.052-1.2 0.052-3.518s-0.011-2.608-0.052-3.519c-0.043-0.909-0.187-1.529-0.396-2.071-0.219-0.561-0.51-1.037-0.985-1.512s-0.949-0.766-1.511-0.984c-0.544-0.211-1.164-0.355-2.073-0.396-0.91-0.041-1.2-0.052-3.518-0.052h0.003z"></path>
<path d="M15.235 9.005c0.227-0 0.481 0 0.766 0 2.278 0 2.548 0.008 3.448 0.049 0.832 0.038 1.284 0.177 1.584 0.294 0.398 0.155 0.682 0.34 0.981 0.638s0.484 0.583 0.639 0.981c0.117 0.3 0.256 0.752 0.294 1.584 0.041 0.899 0.050 1.17 0.050 3.447s-0.009 2.548-0.050 3.447c-0.038 0.832-0.177 1.284-0.294 1.584-0.155 0.398-0.34 0.682-0.639 0.98s-0.582 0.483-0.981 0.638c-0.3 0.117-0.752 0.256-1.584 0.294-0.9 0.041-1.17 0.050-3.448 0.050s-2.549-0.009-3.448-0.050c-0.832-0.038-1.284-0.177-1.585-0.294-0.398-0.155-0.683-0.34-0.981-0.638s-0.484-0.582-0.639-0.981c-0.117-0.3-0.256-0.752-0.294-1.584-0.041-0.9-0.049-1.17-0.049-3.449s0.008-2.548 0.049-3.447c0.038-0.832 0.177-1.284 0.294-1.584 0.155-0.398 0.34-0.683 0.639-0.981s0.583-0.484 0.981-0.639c0.301-0.117 0.753-0.256 1.585-0.294 0.787-0.036 1.092-0.046 2.683-0.048v0.002zM20.555 10.422c-0.565 0-1.024 0.458-1.024 1.024s0.459 1.024 1.024 1.024c0.565 0 1.024-0.459 1.024-1.024s-0.459-1.024-1.024-1.024zM16 11.618c-2.42 0-4.382 1.962-4.382 4.382s1.962 4.381 4.382 4.381c2.42 0 4.381-1.961 4.381-4.381s-1.961-4.382-4.381-4.382z"></path>
<path d="M16.001 13.155c1.571 0 2.845 1.273 2.845 2.844s-1.274 2.845-2.845 2.845c-1.571 0-2.845-1.274-2.845-2.845s1.273-2.844 2.845-2.844z"></path>
</symbol>
<symbol id="icon-Menu" viewBox="0 0 46 32">
<path d="M45.714 29.726c0 1.257-1.019 2.274-2.274 2.274h-18.309c-1.256 0-2.274-1.018-2.274-2.274s1.018-2.274 2.274-2.274h18.309c1.257 0 2.274 1.017 2.274 2.274zM45.714 16c0 1.257-1.019 2.274-2.274 2.274h-41.166c-1.256 0-2.274-1.018-2.274-2.274s1.018-2.274 2.274-2.274h41.166c1.257 0 2.274 1.019 2.274 2.274zM43.44 4.549c1.256 0 2.274-1.018 2.274-2.274s-1.018-2.274-2.274-2.274v0h-27.451c-1.256 0-2.274 1.018-2.274 2.274s1.018 2.274 2.274 2.274v0h27.451z"></path>
</symbol>
<symbol id="icon-close" viewBox="0 0 32 32">
<path stroke-linejoin="miter" stroke-linecap="round" stroke-miterlimit="4" stroke-width="2" d="M8 8l8 8 8-8M8 24l8-8 8 8"></path>
</symbol>
</defs>
</svg>
